<?xml version="1.0" encoding="UTF-8" standalone="no"?>
<!-- Created with Inkscape (http://www.inkscape.org/) -->

<svg
   width="371.34427mm"
   height="604.48254mm"
   viewBox="0 0 371.34428 604.48256"
   version="1.1"
   id="svg1"
   xml:space="preserve"
   sodipodi:docname="iconca.svg"
   inkscape:export-filename="iconca.svg"
   inkscape:export-xdpi="96"
   inkscape:export-ydpi="96"
   inkscape:version="1.4.2 (f4327f4, 2025-05-13)"
   xmlns:inkscape="http://www.inkscape.org/namespaces/inkscape"
   xmlns:sodipodi="http://sodipodi.sourceforge.net/DTD/sodipodi-0.dtd"
   xmlns="http://www.w3.org/2000/svg"
   xmlns:svg="http://www.w3.org/2000/svg"><sodipodi:namedview
     id="namedview1"
     pagecolor="#ffffff"
     bordercolor="#000000"
     borderopacity="0.25"
     inkscape:showpageshadow="2"
     inkscape:pageopacity="0.0"
     inkscape:pagecheckerboard="0"
     inkscape:deskcolor="#d1d1d1"
     inkscape:document-units="mm"
     inkscape:zoom="0.38232424"
     inkscape:cx="243.24903"
     inkscape:cy="1196.6283"
     inkscape:window-width="1920"
     inkscape:window-height="1001"
     inkscape:window-x="-9"
     inkscape:window-y="-9"
     inkscape:window-maximized="1"
     inkscape:current-layer="layer1" /><defs
     id="defs1" /><g
     id="layer1"
     transform="translate(260.95441,195.35416)"><path
       style="display:inline;fill:#715cd7;stroke-width:2.86723;fill-opacity:1"
       d="m 1977.2058,3033.4254 c 18.552,-35.3045 47.6834,-54.9988 87.5105,-59.1616 20.0911,-2.1 20.7866,-4.3973 6.8558,-22.6476 -5.5194,-7.2308 -10.0353,-15.0704 -10.0353,-17.4214 0,-5.515 -4.2004,-4.1494 -42.654,13.8672 -16.7532,7.8493 -54.0962,24.4967 -82.9845,36.9941 -28.8883,12.4974 -56.426,24.7404 -61.195,27.2065 -4.769,2.4661 -9.295,3.8598 -10.0578,3.097 -0.7628,-0.7628 4.9705,-10.2122 12.7406,-20.9988 21.6437,-30.046 59.7406,-95.9234 78.1478,-135.1334 9.1769,-19.5481 11.0183,-21.5771 28.4098,-31.303 29.9887,-16.7706 93.3687,-60.0554 123.9211,-84.6309 142.3391,-114.4934 232.3285,-262.0221 256.2188,-420.0451 21.0028,-138.9247 -8.4798,-276.8606 -82.9038,-387.8696 -25.9373,-38.6875 -65.8677,-83.7071 -94.4518,-106.49 -15.6498,-12.4737 -15.9778,-12.1637 17.759,-16.7874 45.3142,-6.2104 98.1082,-24.4718 136.6857,-47.2795 73.8896,-43.6847 121.5864,-104.1963 140.1555,-177.8113 12.7551,-50.5661 11.8734,-98.84 -2.7254,-149.2175 -9.6592,-33.3319 -20.6233,-54.6142 -42.7034,-82.891 -41.7601,-53.4798 -93.069,-85.645 -160.3507,-100.5229 -34.1426,-7.5498 -92.2497,-4.8881 -125.1278,5.7318 -44.7241,14.4463 -80.7679,36.8449 -113.7485,70.6865 -26.4902,27.1818 -32.8779,35.0386 -55.418,68.1639 -20.8294,30.6112 -33.5876,40.2606 -53.3365,40.3398 -18.3385,0.073 -28.7097,-9.0535 -50.5414,-44.4784 -33.6505,-54.6026 -51.7238,-78.9455 -57.9804,-78.0935 -7.7483,1.0552 -27.5185,39.0566 -39.9256,76.7434 -14.0876,42.7916 -19.7269,79.6527 -19.7393,129.0253 -0.017,67.5012 11.8481,118.1545 40.8943,174.5829 23.8145,46.2646 54.0199,78.1477 100.1599,105.7228 l 20.447,12.22 35.0286,1.1712 c 115.6384,3.8665 194.2158,47.58 266.4053,148.2043 88.797,123.7733 107.4935,302.7248 47.78,457.3194 -32.297,83.6148 -72.8584,145.6092 -138.6624,211.9323 -100.412,101.2042 -234.1469,178.5116 -458.7565,265.1907 -84.0551,32.4378 -320.595,117.5386 -322.2107,115.923 -1.5563,-1.5563 7.3746,-129.5371 12.6967,-181.9435 25.8926,-254.9666 67.1846,-444.5062 133.9849,-615.0204 24.5566,-62.6832 66.1993,-145.9543 91.05,-182.069 2.7129,-3.9424 11.0016,-16.8449 18.4194,-28.6722 23.0363,-36.7303 55.76,-80.6738 87.0359,-116.8774 10.5408,-12.2015 23.0358,-26.6661 27.7667,-32.1436 17.2094,-19.9252 56.942,-62.0126 69.5824,-73.7063 l 12.9563,-11.986 -10.7433,-16.1856 c -14.7847,-22.274 -33.5195,-63.3014 -44.2635,-96.9326 -14.845,-46.4682 -18.3291,-76.9568 -16.7299,-146.3994 1.2207,-53.0075 2.3035,-63.9816 8.6651,-87.8164 16.2996,-61.0692 45.6328,-120.5816 78.57,-159.4062 l 16.1209,-19.0024 -4.6327,-13.2991 c -16.3653,-46.9796 -15.8677,-127.7486 1.11,-180.1747 l 2.9722,-9.1781 21.5134,21.305 c 26.9587,26.6975 61.5203,49.8396 99.1961,66.4207 33.1866,14.6054 35.3363,14.6804 75.3436,2.6289 47.926,-14.4368 86.1921,-19.5935 147.6622,-19.8988 55.3064,-0.2746 91.2684,2.9022 129.8695,11.4726 17.4799,3.8809 22.1946,3.8627 45.8946,-0.1771 82.4734,-14.0581 195.8494,-58.0031 266.8917,-103.4483 9.1169,-5.832 17.0508,-10.1289 17.631,-9.5487 0.5801,0.5801 -0.2969,14.5584 -1.9491,31.0628 -6.8065,67.9945 -30.5759,131.0834 -68.7833,182.5649 -6.0941,8.2114 -11.0803,15.7072 -11.0803,16.6572 0,0.9499 8.8503,12.295 19.6672,25.2112 66.2884,79.1528 113.3509,179.5646 135.0875,288.2206 12.2335,61.1526 16.8805,108.6825 20.0903,205.4888 7.0819,213.5796 1.2899,323.0065 -23.2802,439.8275 -26.9371,128.0759 -91.976,262.62 -180.3242,373.0316 -31.1702,38.9544 -108.9587,116.6812 -155.3309,155.2079 -40.0484,33.2727 -126.3477,95.6854 -167.8619,121.3997 -14.587,9.0354 -26.5219,18.0952 -26.5219,20.1329 0,23.0762 21.5923,83.0391 33.9188,94.1945 3.9419,3.5673 16.9065,4.5125 72.1767,5.2622 l 67.3718,0.9138 16.6321,8.167 c 9.1477,4.4918 23.0389,14.5737 30.8693,22.4041 13.8305,13.8305 31.266,40.3067 31.3205,47.5609 0.021,2.838 -48.3506,3.584 -232.3749,3.584 h -232.4018 z"
       id="path2"
       transform="matrix(0.26458333,0,0,0.26458333,-613.30414,-463.2854)" /><path
       style="display:inline;fill:#715cd7;stroke-width:2.86723;fill-opacity:1"
       d="m 1917.3846,1781.4386 c -28.9219,-48.0959 -38.3844,-89.9903 -30.7333,-136.0701 8.3024,-50.0032 28.5105,-68.702 58.5379,-54.1659 26.2719,12.718 62.1728,61.637 57.8562,78.8356 -0.9334,3.7192 -9.5944,17.4131 -19.2465,30.431 -25.3468,34.1852 -36.9072,52.9413 -47.2549,76.6686 l -9.1411,20.9607 z"
       id="path3"
       transform="matrix(0.26458333,0,0,0.26458333,-613.30414,-463.2854)" /><path
       style="display:inline;fill:#715cd7;fill-opacity:1;stroke-width:2.86723"
       d="m 1822.2812,1584.0956 c -17.7077,-23.216 -26.2192,-56.8691 -23.7679,-93.974 1.638,-24.7938 11.9762,-57.5044 17.5927,-55.6641 1.7325,0.5676 5.9448,5.1561 9.3607,10.1965 21.8541,32.248 27.7447,101.8545 11.9865,141.6398 -4.0477,10.2191 -5.9062,9.9498 -15.172,-2.1982 z"
       id="path4"
       transform="matrix(0.26458333,0,0,0.26458333,-613.30414,-463.2854)" /><path
       style="display:inline;fill:#715cd7;fill-opacity:1;stroke-width:2.86723"
       d="m 2169.0311,1598.8564 c -32.1214,-11.2649 -54.3148,-33.893 -61.9361,-63.2739 -10.1498,-39.1286 2.8339,-78.9901 32.523,-99.911 l 19.284,-13.5888 -0.053,17.9287 c -0.074,24.7392 13.1033,36.6109 35.1878,36.6109 11.7357,0 15.5654,-1.3954 22.2925,-8.1224 4.4673,-4.4674 9.7467,-13.5439 11.732,-20.17 3.097,-10.3372 2.9368,-13.4583 -1.1286,-21.9835 l -4.7381,-9.9359 63.7495,0.011 74.0608,-2.0791 -17.4205,9.6667 c -5.6687,3.1456 -20.3076,11.4054 -31.8408,16.7661 -11.5331,5.3606 -21.4723,8.4079 -20.8948,9.4967 10.6723,20.1205 14.6517,25.7655 14.7052,51.6492 0.047,22.6937 -8.6039,38.6152 -14.0905,49.7527 -27.329,49.4047 -69.4059,62.1046 -121.4321,47.1826 z"
       id="path5"
       transform="matrix(0.26458333,0,0,0.26458333,-613.30414,-463.2854)" /><path
       style="display:inline;fill:#715cd7;fill-opacity:1;stroke-width:2.86723"
       d="m 1339.3245,3278.4086 c 20.2755,-44.7166 66.1227,-176.059 70.0675,-200.7283 1.7728,-11.0868 2.394,-11.6263 20.9094,-18.1635 187.69,-66.2675 313.6012,-114.3797 391.624,-149.6443 20.3918,-9.2167 37.4884,-16.3452 37.9925,-15.8411 2.7859,2.7859 -66.1212,100.1833 -91.5913,129.4603 -112.5391,129.3602 -227.7656,205.1086 -397.2933,261.1755 -21.0285,6.9546 -38.6941,12.6448 -39.2568,12.6448 -0.5627,0 2.8339,-8.5065 7.548,-18.9034 z"
       id="path6"
       transform="matrix(0.26458333,0,0,0.26458333,-613.30414,-463.2854)" /></g></svg>
